<?xml version="1.0" encoding="UTF-8"?>
<svg width="743px" height="138px" viewBox="0 0 743 138" version="1.1" xmlns="http://www.w3.org/2000/svg" xmlns:xlink="http://www.w3.org/1999/xlink">
    <!-- Generator: Sketch 51.3 (57544) - http://www.bohemiancoding.com/sketch -->
    <title>Artboard Copy</title>
    <desc>Created with Sketch.</desc>
    <defs></defs>
    <g id="Artboard-Copy" stroke="none" stroke-width="1" fill="none" fill-rule="evenodd">
        <path d="M169.704,61 L161.424,49.876 L157.14,54.592 L157.14,61 L152.892,61 L152.892,35.8 L157.14,35.8 L157.14,48.832 L169.164,35.8 L174.168,35.8 L164.412,46.564 L174.816,61 L169.704,61 Z M195.012,55.312 L182.304,55.312 L179.892,61 L175.464,61 L186.588,35.8 L190.944,35.8 L201.96,61 L197.424,61 L195.012,55.312 Z M193.392,51.532 L188.64,40.336 L183.888,51.532 L193.392,51.532 Z M220.032,39.616 L212.04,39.616 L212.04,61 L207.792,61 L207.792,39.616 L199.836,39.616 L199.836,35.8 L220.032,35.8 L220.032,39.616 Z M237.456,55.312 L224.748,55.312 L222.336,61 L217.908,61 L229.032,35.8 L233.388,35.8 L244.404,61 L239.868,61 L237.456,55.312 Z M235.836,51.532 L231.084,40.336 L226.332,51.532 L235.836,51.532 Z M263.736,61 L259.128,53.368 C258.887999,53.3920001 258.504003,53.404 257.976,53.404 L252,53.404 L252,61 L247.752,61 L247.752,35.8 L257.976,35.8 C261.192016,35.8 263.687991,36.5499925 265.464,38.05 C267.240009,39.5500075 268.128,41.6679863 268.128,44.404 C268.128,46.4200101 267.678005,48.123993 266.778,49.516 C265.877996,50.908007 264.588008,51.9279968 262.908,52.576 L268.56,61 L263.736,61 Z M252,49.588 L257.976,49.588 C262.05602,49.588 264.096,47.8960169 264.096,44.512 C264.096,41.2479837 262.05602,39.616 257.976,39.616 L252,39.616 L252,49.588 Z M292.896,38.86 L277.56,57.184 L293.076,57.184 L293.076,61 L271.8,61 L271.8,57.94 L287.172,39.616 L272.268,39.616 L272.268,35.8 L292.896,35.8 L292.896,38.86 Z M308.088,52.612 L308.088,61 L303.876,61 L303.876,52.756 L294.48,35.8 L298.764,35.8 L305.964,48.076 L313.02,35.8 L317.34,35.8 L308.088,52.612 Z M342.54,61 L338.364,61 L324.936,42.928 L324.936,61 L320.688,61 L320.688,35.8 L324.864,35.8 L338.364,53.908 L338.364,35.8 L342.54,35.8 L342.54,61 Z M365.472,55.312 L352.764,55.312 L350.352,61 L345.924,61 L357.048,35.8 L361.404,35.8 L372.42,61 L367.884,61 L365.472,55.312 Z M363.852,51.532 L359.1,40.336 L354.348,51.532 L363.852,51.532 Z M402.3,48.616 L406.008,48.616 L406.008,57.904 C404.711994,58.8880049 403.182009,59.679997 401.418,60.28 C399.653991,60.880003 397.920009,61.18 396.216,61.18 C392.495981,61.18 389.358013,59.9500123 386.802,57.49 C384.245987,55.0299877 382.968,52.000018 382.968,48.4 C382.968,44.799982 384.263987,41.7820122 386.856,39.346 C389.448013,36.9099878 392.651981,35.692 396.468,35.692 C398.244009,35.692 399.989991,36.0099968 401.706,36.646 C403.422009,37.2820032 404.903994,38.1399946 406.152,39.22 L403.74,42.352 C401.67599,40.4319904 399.252014,39.472 396.468,39.472 C393.899987,39.472 391.728009,40.3359914 389.952,42.064 C388.175991,43.7920086 387.288,45.9039875 387.288,48.4 C387.288,50.9200126 388.181991,53.0439914 389.97,54.772 C391.758009,56.5000086 393.935987,57.364 396.504,57.364 C398.44801,57.364 400.37999,56.7880058 402.3,55.636 L402.3,48.616 Z M433.44,35.8 L433.44,50.56 C433.44,53.8480164 432.46801,56.4399905 430.524,58.336 C428.57999,60.2320095 425.904017,61.18 422.496,61.18 C419.087983,61.18 416.40601,60.2320095 414.45,58.336 C412.49399,56.4399905 411.516,53.8480164 411.516,50.56 L411.516,35.8 L415.764,35.8 L415.764,50.56 C415.764,52.6720106 416.369994,54.3339939 417.582,55.546 C418.794006,56.7580061 420.44399,57.364 422.532,57.364 C424.59601,57.364 426.221994,56.764006 427.41,55.564 C428.598006,54.363994 429.192,52.6960107 429.192,50.56 L429.192,35.8 L433.44,35.8 Z M466.164,61 L462.24,61 L462.204,42.172 L454.248,58.372 L451.476,58.372 L443.52,42.172 L443.52,61 L439.524,61 L439.524,35.8 L444.564,35.8 L452.88,52.54 L461.16,35.8 L466.164,35.8 L466.164,61 Z M494.244,35.8 L494.244,50.56 C494.244,53.8480164 493.27201,56.4399905 491.328,58.336 C489.38399,60.2320095 486.708017,61.18 483.3,61.18 C479.891983,61.18 477.21001,60.2320095 475.254,58.336 C473.29799,56.4399905 472.32,53.8480164 472.32,50.56 L472.32,35.8 L476.568,35.8 L476.568,50.56 C476.568,52.6720106 477.173994,54.3339939 478.386,55.546 C479.598006,56.7580061 481.24799,57.364 483.336,57.364 C485.40001,57.364 487.025994,56.764006 488.214,55.564 C489.402006,54.363994 489.996,52.6960107 489.996,50.56 L489.996,35.8 L494.244,35.8 Z M504.576,57.148 L515.484,57.148 L515.484,61 L500.328,61 L500.328,35.8 L504.576,35.8 L504.576,57.148 Z M536.04,55.312 L523.332,55.312 L520.92,61 L516.492,61 L527.616,35.8 L531.972,35.8 L542.988,61 L538.452,61 L536.04,55.312 Z M534.42,51.532 L529.668,40.336 L524.916,51.532 L534.42,51.532 Z M554.076,51.46 L545.22,51.46 L545.22,48.616 L554.076,48.616 L554.076,51.46 Z M576.396,61 L568.116,49.876 L563.832,54.592 L563.832,61 L559.584,61 L559.584,35.8 L563.832,35.8 L563.832,48.832 L575.856,35.8 L580.86,35.8 L571.104,46.564 L581.508,61 L576.396,61 Z M606.852,35.8 L606.852,50.56 C606.852,53.8480164 605.88001,56.4399905 603.936,58.336 C601.99199,60.2320095 599.316017,61.18 595.908,61.18 C592.499983,61.18 589.81801,60.2320095 587.862,58.336 C585.90599,56.4399905 584.928,53.8480164 584.928,50.56 L584.928,35.8 L589.176,35.8 L589.176,50.56 C589.176,52.6720106 589.781994,54.3339939 590.994,55.546 C592.206006,56.7580061 593.85599,57.364 595.944,57.364 C598.00801,57.364 599.633994,56.764006 600.822,55.564 C602.010006,54.363994 602.604,52.6960107 602.604,50.56 L602.604,35.8 L606.852,35.8 Z M612.936,35.8 L623.88,35.8 C626.496013,35.8 628.559992,36.3579944 630.072,37.474 C631.584008,38.5900056 632.34,40.1319902 632.34,42.1 C632.34,43.5160071 631.944004,44.721995 631.152,45.718 C630.359996,46.714005 629.280007,47.3799983 627.912,47.716 C629.592008,48.0040014 630.911995,48.7119944 631.872,49.84 C632.832005,50.9680056 633.312,52.3839915 633.312,54.088 C633.312,56.2480108 632.496008,57.9399939 630.864,59.164 C629.231992,60.3880061 626.988014,61 624.132,61 L612.936,61 L612.936,35.8 Z M617.184,39.58 L617.184,46.24 L623.664,46.24 C625.008007,46.24 626.063996,45.940003 626.832,45.34 C627.600004,44.739997 627.984,43.9120053 627.984,42.856 C627.984,41.7999947 627.606004,40.9900028 626.85,40.426 C626.093996,39.8619972 625.032007,39.58 623.664,39.58 L617.184,39.58 Z M617.184,49.984 L617.184,57.22 L623.664,57.22 C625.344008,57.22 626.645995,56.9020032 627.57,56.266 C628.494005,55.6299968 628.956,54.7240059 628.956,53.548 C628.956,52.4439945 628.488005,51.5740032 627.552,50.938 C626.615995,50.3019968 625.320008,49.984 623.664,49.984 L617.184,49.984 Z M642.6,61 L638.352,61 L638.352,35.8 L642.6,35.8 L642.6,61 Z M660.384,35.692 C662.160009,35.692 663.893992,36.0339966 665.586,36.718 C667.278008,37.4020034 668.735994,38.3559939 669.96,39.58 L667.476,42.676 C666.563995,41.6919951 665.484006,40.9120029 664.236,40.336 C662.987994,39.7599971 661.728006,39.472 660.456,39.472 C657.935987,39.472 655.806009,40.3299914 654.066,42.046 C652.325991,43.7620086 651.456,45.8559876 651.456,48.328 C651.456,50.8240125 652.325991,52.9299914 654.066,54.646 C655.806009,56.3620086 657.935987,57.22 660.456,57.22 C663.072013,57.22 665.41199,56.22401 667.476,54.232 L669.996,57.04 C668.699994,58.3120064 667.188009,59.3199963 665.46,60.064 C663.731991,60.8080037 661.992009,61.18 660.24,61.18 C656.543982,61.18 653.436013,59.9500123 650.916,57.49 C648.395987,55.0299877 647.136,51.9880181 647.136,48.364 C647.136,44.7879821 648.413987,41.7820122 650.97,39.346 C653.526013,36.9099878 656.663981,35.692 660.384,35.692 Z M691.128,61 L682.848,49.876 L678.564,54.592 L678.564,61 L674.316,61 L674.316,35.8 L678.564,35.8 L678.564,48.832 L690.588,35.8 L695.592,35.8 L685.836,46.564 L696.24,61 L691.128,61 Z M716.436,55.312 L703.728,55.312 L701.316,61 L696.888,61 L708.012,35.8 L712.368,35.8 L723.384,61 L718.848,61 L716.436,55.312 Z M714.816,51.532 L710.064,40.336 L705.312,51.532 L714.816,51.532 Z M167.576,104 L159.296,92.876 L155.012,97.592 L155.012,104 L150.764,104 L150.764,78.8 L155.012,78.8 L155.012,91.832 L167.036,78.8 L172.04,78.8 L162.284,89.564 L172.688,104 L167.576,104 Z M196.884,98.312 L184.176,98.312 L181.764,104 L177.336,104 L188.46,78.8 L192.816,78.8 L203.832,104 L199.296,104 L196.884,98.312 Z M195.264,94.532 L190.512,83.336 L185.76,94.532 L195.264,94.532 Z M233.032,104 L228.856,104 L215.428,85.928 L215.428,104 L211.18,104 L211.18,78.8 L215.356,78.8 L228.856,96.908 L228.856,78.8 L233.032,78.8 L233.032,104 Z M254.852,78.692 C256.628009,78.692 258.361992,79.0339966 260.054,79.718 C261.746008,80.4020034 263.203994,81.3559939 264.428,82.58 L261.944,85.676 C261.031995,84.6919951 259.952006,83.9120029 258.704,83.336 C257.455994,82.7599971 256.196006,82.472 254.924,82.472 C252.403987,82.472 250.274009,83.3299914 248.534,85.046 C246.793991,86.7620086 245.924,88.8559876 245.924,91.328 C245.924,93.8240125 246.793991,95.9299914 248.534,97.646 C250.274009,99.3620086 252.403987,100.22 254.924,100.22 C257.540013,100.22 259.87999,99.22401 261.944,97.232 L264.464,100.04 C263.167994,101.312006 261.656009,102.319996 259.928,103.064 C258.199991,103.808004 256.460009,104.18 254.708,104.18 C251.011982,104.18 247.904013,102.950012 245.384,100.49 C242.863987,98.0299877 241.604,94.9880181 241.604,91.364 C241.604,87.7879821 242.881987,84.7820122 245.438,82.346 C247.994013,79.9099878 251.131981,78.692 254.852,78.692 Z M290.784,82.616 L277.032,82.616 L277.032,89.42 L289.344,89.42 L289.344,93.236 L277.032,93.236 L277.032,100.184 L291.216,100.184 L291.216,104 L272.784,104 L272.784,78.8 L290.784,78.8 L290.784,82.616 Z M304.648,100.148 L315.556,100.148 L315.556,104 L300.4,104 L300.4,78.8 L304.648,78.8 L304.648,100.148 Z M340.112,98.312 L327.404,98.312 L324.992,104 L320.564,104 L331.688,78.8 L336.044,78.8 L347.06,104 L342.524,104 L340.112,98.312 Z M338.492,94.532 L333.74,83.336 L328.988,94.532 L338.492,94.532 Z M370.392,104 L365.784,96.368 C365.543999,96.3920001 365.160003,96.404 364.632,96.404 L358.656,96.404 L358.656,104 L354.408,104 L354.408,78.8 L364.632,78.8 C367.848016,78.8 370.343991,79.5499925 372.12,81.05 C373.896009,82.5500075 374.784,84.6679863 374.784,87.404 C374.784,89.4200101 374.334005,91.123993 373.434,92.516 C372.533996,93.908007 371.244008,94.9279968 369.564,95.576 L375.216,104 L370.392,104 Z M358.656,92.588 L364.632,92.588 C368.71202,92.588 370.752,90.8960169 370.752,87.512 C370.752,84.2479837 368.71202,82.616 364.632,82.616 L358.656,82.616 L358.656,92.588 Z M388.684,104 L384.436,104 L384.436,78.8 L388.684,78.8 L388.684,104 Z M415.58,98.312 L402.872,98.312 L400.46,104 L396.032,104 L407.156,78.8 L411.512,78.8 L422.528,104 L417.992,104 L415.58,98.312 Z M413.96,94.532 L409.208,83.336 L404.456,94.532 L413.96,94.532 Z M459.436,98.312 L446.728,98.312 L444.316,104 L439.888,104 L451.012,78.8 L455.368,78.8 L466.384,104 L461.848,104 L459.436,98.312 Z M457.816,94.532 L453.064,83.336 L448.312,94.532 L457.816,94.532 Z M473.732,78.8 L484.064,78.8 C487.832019,78.8 490.945988,79.9879881 493.406,82.364 C495.866012,84.7400119 497.096,87.7519818 497.096,91.4 C497.096,95.0480182 495.860012,98.0599881 493.388,100.436 C490.915988,102.812012 487.772019,104 483.956,104 L473.732,104 L473.732,78.8 Z M477.98,82.616 L477.98,100.184 L484.172,100.184 C486.644012,100.184 488.701992,99.3620082 490.346,97.718 C491.990008,96.0739918 492.812,93.9800127 492.812,91.436 C492.812,88.8919873 491.966008,86.7860083 490.274,85.118 C488.581992,83.4499917 486.488012,82.616 483.992,82.616 L477.98,82.616 Z M531.192,104 L526.836,104 L520.86,84.344 L514.812,104 L510.42,104 L502.068,78.8 L506.64,78.8 L512.76,99.284 L518.844,78.836 L523.02,78.8 L529.14,99.284 L535.224,78.8 L539.616,78.8 L531.192,104 Z M548.188,82.364 C550.756013,79.9159878 553.923981,78.692 557.692,78.692 C561.460019,78.692 564.627987,79.9099878 567.196,82.346 C569.764013,84.7820122 571.048,87.799982 571.048,91.4 C571.048,95.000018 569.764013,98.0299877 567.196,100.49 C564.627987,102.950012 561.460019,104.18 557.692,104.18 C553.923981,104.18 550.756013,102.950012 548.188,100.49 C545.619987,98.0299877 544.336,95.000018 544.336,91.4 C544.336,87.799982 545.619987,84.7880121 548.188,82.364 Z M557.728,82.508 C555.231988,82.508 553.096009,83.3659914 551.32,85.082 C549.543991,86.7980086 548.656,88.9039875 548.656,91.4 C548.656,93.8960125 549.549991,96.0139913 551.338,97.754 C553.126009,99.4940087 555.255988,100.364 557.728,100.364 C560.200012,100.364 562.311991,99.4940087 564.064,97.754 C565.816009,96.0139913 566.692,93.8960125 566.692,91.4 C566.692,88.9039875 565.816009,86.7980086 564.064,85.082 C562.311991,83.3659914 560.200012,82.508 557.728,82.508 Z M596.396,104 L588.116,92.876 L583.832,97.592 L583.832,104 L579.584,104 L579.584,78.8 L583.832,78.8 L583.832,91.832 L595.856,78.8 L600.86,78.8 L591.104,89.564 L601.508,104 L596.396,104 Z M625.704,98.312 L612.996,98.312 L610.584,104 L606.156,104 L617.28,78.8 L621.636,78.8 L632.652,104 L628.116,104 L625.704,98.312 Z M624.084,94.532 L619.332,83.336 L614.58,94.532 L624.084,94.532 Z M650.512,78.692 C652.288009,78.692 654.021992,79.0339966 655.714,79.718 C657.406008,80.4020034 658.863994,81.3559939 660.088,82.58 L657.604,85.676 C656.691995,84.6919951 655.612006,83.9120029 654.364,83.336 C653.115994,82.7599971 651.856006,82.472 650.584,82.472 C648.063987,82.472 645.934009,83.3299914 644.194,85.046 C642.453991,86.7620086 641.584,88.8559876 641.584,91.328 C641.584,93.8240125 642.453991,95.9299914 644.194,97.646 C645.934009,99.3620086 648.063987,100.22 650.584,100.22 C653.200013,100.22 655.53999,99.22401 657.604,97.232 L660.124,100.04 C658.827994,101.312006 657.316009,102.319996 655.588,103.064 C653.859991,103.808004 652.120009,104.18 650.368,104.18 C646.671982,104.18 643.564013,102.950012 641.044,100.49 C638.523987,98.0299877 637.264,94.9880181 637.264,91.364 C637.264,87.7879821 638.541987,84.7820122 641.098,82.346 C643.654013,79.9099878 646.791981,78.692 650.512,78.692 Z M685.256,104 L676.976,92.876 L672.692,97.592 L672.692,104 L668.444,104 L668.444,78.8 L672.692,78.8 L672.692,91.832 L684.716,78.8 L689.72,78.8 L679.964,89.564 L690.368,104 L685.256,104 Z M714.564,98.312 L701.856,98.312 L699.444,104 L695.016,104 L706.14,78.8 L710.496,78.8 L721.512,104 L716.976,104 L714.564,98.312 Z M712.944,94.532 L708.192,83.336 L703.44,94.532 L712.944,94.532 Z" id="Katarzyna-Gumula-Kub" fill="#0D332C"></path>
        <path d="M39.4166144,111 C38.7162862,110.148335 37.5708148,110.113085 36.6782397,109.547962 C34.7729352,108.342668 33.6011442,106.632514 32.5277654,104.81434 C31.2976138,102.726679 30.2196577,100.55715 28.9723412,98.4706266 C27.9916529,96.8298347 27.1505725,95.0935289 26.1561523,93.4436404 C24.86764,91.3048119 23.6958491,89.094348 22.4656975,86.9248186 C21.5593905,85.3260983 20.6038774,83.7330633 19.749065,82.0922714 C18.2694501,79.2495966 16.6170418,76.4967504 15.0481694,73.7006954 C14.8765204,73.3959607 14.7723866,73.0548397 14.6613869,72.7887654 C14.4393874,71.7449352 14.1407181,70.7647809 14.03544,69.7641594 C13.8283168,67.8152215 14.5458098,65.6411439 15.7496419,63.594418 C16.6479387,62.066196 17.2635866,60.3651394 18.240842,58.894908 C20.3830222,55.6724519 21.883235,52.0918187 24.0620338,48.8886927 C25.0965054,47.3684303 25.7441946,45.5946012 26.7214499,44.029993 C28.5374969,41.1179569 29.8797926,37.9352982 31.9121175,35.1472028 C32.1959106,34.7583249 32.2897454,34.2352727 32.491147,33.7838559 C33.6766698,31.134483 35.6575,29.2583177 38.2368132,27.9688804 C38.5022971,27.8347061 42.3117619,27.0251123 42.6916785,27.0251123 C54.3889898,27.0239753 66.0863011,26.9432433 77.7824681,27.0774176 C81.0838517,27.1149409 84.1220401,28.4623687 86.1967051,31.1390313 C87.4508875,32.7559447 88.3274421,34.6753188 89.2772335,36.5094125 C90.1972725,38.2877899 91.2111463,40.0036284 92.2696488,41.7024109 C93.0214717,42.9099791 93.6794598,44.1778121 94.3717776,45.4229036 C95.5813314,47.6003925 96.748545,49.802897 98.0038718,51.9553703 C99.5132392,54.5478897 101.079823,57.1244902 102.472469,59.7624924 C103.521817,61.7512277 105.153627,63.5034524 105.502647,65.8469535 C106.235016,66.4393669 105.874553,67.2546461 105.902017,67.9698631 C105.955801,69.3445806 106.113718,70.7590956 105.859677,72.0883303 C105.623946,73.3209141 104.705051,74.360196 104.114578,75.4904435 C102.986272,77.6463281 101.726368,79.711247 100.507659,81.809141 C99.5841875,83.3999019 98.8174883,85.0952731 97.840233,86.6667037 C96.4819168,88.8521521 95.2334559,91.1171954 94.0181806,93.3640456 C92.4287103,96.3010972 90.5543025,99.0823702 89.1593678,102.134266 C88.3022669,104.00702 87.2735168,105.857033 86.0010251,107.467124 C85.1347695,108.562122 83.7352575,109.256872 82.5314254,110.067603 C82.0347875,110.401901 81.27381,110.31321 80.9797179,111 L39.4166144,111 Z" id="Fill-28" fill="#CCA047"></path>
        <path d="M64.28,39.076 C63.2373281,39.9826712 62.4440027,41.0593271 61.9,42.306 C61.3559973,43.5526729 61.084,44.742661 61.084,45.876 C61.084,46.8280048 61.2199986,47.7573288 61.492,48.664 C61.7640014,49.5706712 62.1266644,50.2959973 62.58,50.84 C65.5266814,49.0266576 68.6773166,47.5306726 72.032,46.352 C75.3866834,45.1733274 78.8319823,44.584 82.368,44.584 C83.1840041,44.584 84.0339956,44.6519993 84.918,44.788 C85.8020044,44.9240007 86.606663,45.1619983 87.332,45.502 C88.057337,45.8420017 88.6579976,46.3293302 89.134,46.964 C89.6100024,47.5986698 89.848,48.3919952 89.848,49.344 C89.848,50.8400075 89.4173376,52.0979949 88.556,53.118 C87.6946624,54.1380051 86.5840068,54.9653302 85.224,55.6 C83.8639932,56.2346698 82.3453417,56.6879986 80.668,56.96 C78.9906583,57.2320014 77.3360082,57.368 75.704,57.368 C73.6186562,57.368 71.442678,57.0620031 69.176,56.45 C66.909322,55.8379969 64.9146753,54.6706753 63.192,52.948 C61.8773268,53.8546712 60.5286736,55.0673257 59.146,56.586 C57.7633264,58.1046743 56.4940058,59.7479912 55.338,61.516 C54.1819942,63.2840088 53.2300037,65.097324 52.482,66.956 C51.7339963,68.814676 51.36,70.5373254 51.36,72.124 C51.36,73.0760048 51.4393325,73.9713291 51.598,74.81 C51.7566675,75.6486709 52.0513312,76.3739969 52.482,76.986 C52.9126688,77.5980031 53.490663,78.0853315 54.216,78.448 C54.941337,78.8106685 55.8479946,78.992 56.936,78.992 C58.2053397,78.992 59.4973268,78.7426692 60.812,78.244 C62.1266732,77.7453308 63.350661,77.1446702 64.484,76.442 C65.617339,75.7393298 66.5919959,75.025337 67.408,74.3 C68.2240041,73.574663 68.7226658,72.9853356 68.904,72.532 C69.3573356,71.5799952 69.7766647,70.6960041 70.162,69.88 C70.5473353,69.0639959 70.9893308,68.3500031 71.488,67.738 C71.9866692,67.1259969 72.5873298,66.6386685 73.29,66.276 C73.9926702,65.9133315 74.8653281,65.732 75.908,65.732 C76.1800014,65.732 76.4406654,65.7999993 76.69,65.936 C76.9393346,66.0720007 77.064,66.343998 77.064,66.752 C77.064,67.2506692 76.6106712,68.0213281 75.704,69.064 C74.7973288,70.1066719 73.8680048,71.2399939 72.916,72.464 C71.5106596,74.9573458 69.9126756,77.4959871 68.122,80.08 C66.3313244,82.6640129 64.3253444,84.987323 62.104,87.05 C59.8826556,89.112677 57.4120136,90.8013268 54.692,92.116 C51.9719864,93.4306732 49.0026828,94.088 45.784,94.088 C44.242659,94.088 42.80334,93.8726688 41.466,93.442 C40.12866,93.0113312 38.9613383,92.3993373 37.964,91.606 C36.9666617,90.8126627 36.1846695,89.8606722 35.618,88.75 C35.0513305,87.6393278 34.768,86.4266732 34.768,85.112 C34.768,83.9333274 35.0513305,82.8906712 35.618,81.984 C36.1846695,81.0773288 37.1026603,80.624 38.372,80.624 C39.0066698,80.624 39.5619976,80.8619976 40.038,81.338 C40.5140024,81.8140024 40.752,82.3693302 40.752,83.004 C40.752,83.729337 40.5366688,84.3186644 40.106,84.772 C39.6753312,85.2253356 39.097337,85.4293336 38.372,85.384 C38.2359993,85.384 38.0433346,85.3726668 37.794,85.35 C37.5446654,85.3273332 37.3520007,85.2706671 37.216,85.18 C37.1253329,85.4973349 37.08,85.7919986 37.08,86.064 L37.08,86.744 C37.08,87.7413383 37.3293308,88.6479959 37.828,89.464 C38.3266692,90.2800041 38.9839959,90.9713305 39.8,91.538 C40.6160041,92.1046695 41.5566613,92.5353319 42.622,92.83 C43.6873387,93.1246681 44.8093274,93.272 45.988,93.272 C48.4360122,93.272 50.691323,92.6826726 52.754,91.504 C54.816677,90.3253274 56.7093247,88.8520088 58.432,87.084 C60.1546753,85.3159912 61.7299929,83.400677 63.158,81.338 C64.5860071,79.275323 65.866661,77.3600088 67,75.592 L66.864,75.456 C65.2773254,76.7706732 63.4866766,77.8699956 61.492,78.754 C59.4973234,79.6380044 57.4120109,80.08 55.236,80.08 C52.6973206,80.08 50.6913407,79.3320075 49.218,77.836 C47.7446593,76.3399925 47.008,74.3226794 47.008,71.784 C47.008,69.7893234 47.4953285,67.7946766 48.47,65.8 C49.4446715,63.8053234 50.6686593,61.9126756 52.142,60.122 C53.6153407,58.3313244 55.2359912,56.6766743 57.004,55.158 C58.7720088,53.6393257 60.426659,52.3813383 61.968,51.384 C60.834661,49.7519918 60.268,47.9613431 60.268,46.012 C60.268,44.5159925 60.6193298,43.1333397 61.322,41.864 C62.0246702,40.5946603 62.8746617,39.5293376 63.872,38.668 L64.28,39.076 Z M87.128,48.732 C87.128,47.9159959 86.9353353,47.2926688 86.55,46.862 C86.1646647,46.4313312 85.6660031,46.1026678 85.054,45.876 C84.4419969,45.6493322 83.7960034,45.5133336 83.116,45.468 C82.4359966,45.4226664 81.7786698,45.4 81.144,45.4 C79.6479925,45.4 78.1180078,45.603998 76.554,46.012 C74.9899922,46.420002 73.4486743,46.9413302 71.93,47.576 C70.4113257,48.2106698 68.9493404,48.9473291 67.544,49.786 C66.1386596,50.6246709 64.869339,51.4973288 63.736,52.404 C64.869339,53.7186732 66.4899895,54.738663 68.598,55.464 C70.7060105,56.189337 73.09732,56.552 75.772,56.552 C77.2226739,56.552 78.6279932,56.3820017 79.988,56.042 C81.3480068,55.7019983 82.5493281,55.2033366 83.592,54.546 C84.6346719,53.8886634 85.4846634,53.0726715 86.142,52.098 C86.7993366,51.1233285 87.128,50.0013397 87.128,48.732 Z" id="G-" fill="#FFFFFF" transform="translate(62.308000, 66.378000) rotate(-14.000000) translate(-62.308000, -66.378000) "></path>
    </g>
</svg>