<?xml version="1.0" encoding="UTF-8"?>
<svg width="743px" height="138px" viewBox="0 0 743 138" version="1.1" xmlns="http://www.w3.org/2000/svg" xmlns:xlink="http://www.w3.org/1999/xlink">
    <!-- Generator: Sketch 51.3 (57544) - http://www.bohemiancoding.com/sketch -->
    <title>Artboard Copy</title>
    <desc>Created with Sketch.</desc>
    <defs></defs>
    <g id="Artboard-Copy" stroke="none" stroke-width="1" fill="none" fill-rule="evenodd">
        <text id="Katarzyna-Gumula-Kub" font-family="Montserrat-Regular, Montserrat" font-size="36" font-weight="normal" fill="#0D332C">
            <tspan x="149.58" y="61">KATARZYNA GUMULA-KUBICKA</tspan>
            <tspan x="147.452" y="104" letter-spacing="4">KANCELARIA ADWOKACKA</tspan>
        </text>
        <path d="M39.4166144,111 C38.7162862,110.148335 37.5708148,110.113085 36.6782397,109.547962 C34.7729352,108.342668 33.6011442,106.632514 32.5277654,104.81434 C31.2976138,102.726679 30.2196577,100.55715 28.9723412,98.4706266 C27.9916529,96.8298347 27.1505725,95.0935289 26.1561523,93.4436404 C24.86764,91.3048119 23.6958491,89.094348 22.4656975,86.9248186 C21.5593905,85.3260983 20.6038774,83.7330633 19.749065,82.0922714 C18.2694501,79.2495966 16.6170418,76.4967504 15.0481694,73.7006954 C14.8765204,73.3959607 14.7723866,73.0548397 14.6613869,72.7887654 C14.4393874,71.7449352 14.1407181,70.7647809 14.03544,69.7641594 C13.8283168,67.8152215 14.5458098,65.6411439 15.7496419,63.594418 C16.6479387,62.066196 17.2635866,60.3651394 18.240842,58.894908 C20.3830222,55.6724519 21.883235,52.0918187 24.0620338,48.8886927 C25.0965054,47.3684303 25.7441946,45.5946012 26.7214499,44.029993 C28.5374969,41.1179569 29.8797926,37.9352982 31.9121175,35.1472028 C32.1959106,34.7583249 32.2897454,34.2352727 32.491147,33.7838559 C33.6766698,31.134483 35.6575,29.2583177 38.2368132,27.9688804 C38.5022971,27.8347061 42.3117619,27.0251123 42.6916785,27.0251123 C54.3889898,27.0239753 66.0863011,26.9432433 77.7824681,27.0774176 C81.0838517,27.1149409 84.1220401,28.4623687 86.1967051,31.1390313 C87.4508875,32.7559447 88.3274421,34.6753188 89.2772335,36.5094125 C90.1972725,38.2877899 91.2111463,40.0036284 92.2696488,41.7024109 C93.0214717,42.9099791 93.6794598,44.1778121 94.3717776,45.4229036 C95.5813314,47.6003925 96.748545,49.802897 98.0038718,51.9553703 C99.5132392,54.5478897 101.079823,57.1244902 102.472469,59.7624924 C103.521817,61.7512277 105.153627,63.5034524 105.502647,65.8469535 C106.235016,66.4393669 105.874553,67.2546461 105.902017,67.9698631 C105.955801,69.3445806 106.113718,70.7590956 105.859677,72.0883303 C105.623946,73.3209141 104.705051,74.360196 104.114578,75.4904435 C102.986272,77.6463281 101.726368,79.711247 100.507659,81.809141 C99.5841875,83.3999019 98.8174883,85.0952731 97.840233,86.6667037 C96.4819168,88.8521521 95.2334559,91.1171954 94.0181806,93.3640456 C92.4287103,96.3010972 90.5543025,99.0823702 89.1593678,102.134266 C88.3022669,104.00702 87.2735168,105.857033 86.0010251,107.467124 C85.1347695,108.562122 83.7352575,109.256872 82.5314254,110.067603 C82.0347875,110.401901 81.27381,110.31321 80.9797179,111 L39.4166144,111 Z" id="Fill-28" fill="#CCA047"></path>
        <text id="G-" transform="translate(110.000000, 62.000000) rotate(-14.000000) translate(-110.000000, -62.000000) " font-family="SnellRoundhand, Snell Roundhand" font-size="68" font-weight="normal" fill="#FFFFFF">
            <tspan x="33" y="83">G </tspan>
        </text>
    </g>
</svg>