<?xml version="1.0" encoding="UTF-8"?>
<svg width="92px" height="92px" viewBox="0 0 92 92" version="1.1" xmlns="http://www.w3.org/2000/svg" xmlns:xlink="http://www.w3.org/1999/xlink">
    <!-- Generator: Sketch 51.3 (57544) - http://www.bohemiancoding.com/sketch -->
    <title>Artboard Copy 2</title>
    <desc>Created with Sketch.</desc>
    <defs></defs>
    <g id="Artboard-Copy-2" stroke="none" stroke-width="1" fill="none" fill-rule="evenodd">
        <g id="Group" transform="translate(0.000000, -22.000000)">
            <path d="M25.4166144,110 C24.7162862,109.148335 23.5708148,109.113085 22.6782397,108.547962 C20.7729352,107.342668 19.6011442,105.632514 18.5277654,103.81434 C17.2976138,101.726679 16.2196577,99.5571499 14.9723412,97.4706266 C13.9916529,95.8298347 13.1505725,94.0935289 12.1561523,92.4436404 C10.86764,90.3048119 9.69584911,88.094348 8.46569751,85.9248186 C7.55939047,84.3260983 6.60387736,82.7330633 5.74906504,81.0922714 C4.26945014,78.2495966 2.61704185,75.4967504 1.04816943,72.7006954 C0.876520372,72.3959607 0.772386609,72.0548397 0.661386883,71.7887654 C0.439387431,70.7449352 0.140718066,69.7647809 0.0354399752,68.7641594 C-0.171683225,66.8152215 0.545809849,64.6411439 1.74964193,62.594418 C2.64793868,61.066196 3.26358664,59.3651394 4.24084196,57.894908 C6.38302224,54.6724519 7.88323503,51.0918187 10.0620338,47.8886927 C11.0965054,46.3684303 11.7441946,44.5946012 12.7214499,43.029993 C14.5374969,40.1179569 15.8797926,36.9352982 17.9121175,34.1472028 C18.1959106,33.7583249 18.2897454,33.2352727 18.491147,32.7838559 C19.6766698,30.134483 21.6575,28.2583177 24.2368132,26.9688804 C24.5022971,26.8347061 28.3117619,26.0251123 28.6916785,26.0251123 C40.3889898,26.0239753 52.0863011,25.9432433 63.7824681,26.0774176 C67.0838517,26.1149409 70.1220401,27.4623687 72.1967051,30.1390313 C73.4508875,31.7559447 74.3274421,33.6753188 75.2772335,35.5094125 C76.1972725,37.2877899 77.2111463,39.0036284 78.2696488,40.7024109 C79.0214717,41.9099791 79.6794598,43.1778121 80.3717776,44.4229036 C81.5813314,46.6003925 82.748545,48.802897 84.0038718,50.9553703 C85.5132392,53.5478897 87.0798229,56.1244902 88.472469,58.7624924 C89.5218169,60.7512277 91.1536273,62.5034524 91.5026471,64.8469535 C92.2350164,65.4393669 91.8745534,66.2546461 91.9020172,66.9698631 C91.9558006,68.3445806 92.1137177,69.7590956 91.8596771,71.0883303 C91.6239457,72.3209141 90.7050511,73.360196 90.1145783,74.4904435 C88.9862718,76.6463281 87.7263677,78.711247 86.5076594,80.809141 C85.5841875,82.3999019 84.8174883,84.0952731 83.840233,85.6667037 C82.4819168,87.8521521 81.2334559,90.1171954 80.0181806,92.3640456 C78.4287103,95.3010972 76.5543025,98.0823702 75.1593678,101.134266 C74.3022669,103.00702 73.2735168,104.857033 72.0010251,106.467124 C71.1347695,107.562122 69.7352575,108.256872 68.5314254,109.067603 C68.0347875,109.401901 67.27381,109.31321 66.9797179,110 L25.4166144,110 Z" id="Fill-28" fill="#CC9932"></path>
            <text id="G-" transform="translate(96.000000, 61.000000) rotate(-14.000000) translate(-96.000000, -61.000000) " font-family="SnellRoundhand, Snell Roundhand" font-size="68" font-weight="normal" fill="#FFFFFF">
                <tspan x="19" y="82">G </tspan>
            </text>
        </g>
    </g>
</svg>