<?xml version="1.0" encoding="UTF-8"?>
<svg width="92px" height="92px" viewBox="0 0 92 92" version="1.1" xmlns="http://www.w3.org/2000/svg" xmlns:xlink="http://www.w3.org/1999/xlink">
    <!-- Generator: Sketch 51.3 (57544) - http://www.bohemiancoding.com/sketch -->
    <title>Artboard Copy 2</title>
    <desc>Created with Sketch.</desc>
    <defs></defs>
    <g id="Artboard-Copy-2" stroke="none" stroke-width="1" fill="none" fill-rule="evenodd">
        <g id="Group" transform="translate(0.000000, 4.000000)">
            <path d="M25.4166144,84 C24.7162862,83.1483346 23.5708148,83.1130855 22.6782397,82.5479617 C20.7729352,81.3426676 19.6011442,79.6325144 18.5277654,77.8143396 C17.2976138,75.7266793 16.2196577,73.5571499 14.9723412,71.4706266 C13.9916529,69.8298347 13.1505725,68.0935289 12.1561523,66.4436404 C10.86764,64.3048119 9.69584911,62.094348 8.46569751,59.9248186 C7.55939047,58.3260983 6.60387736,56.7330633 5.74906504,55.0922714 C4.26945014,52.2495966 2.61704185,49.4967504 1.04816943,46.7006954 C0.876520372,46.3959607 0.772386609,46.0548397 0.661386883,45.7887654 C0.439387431,44.7449352 0.140718066,43.7647809 0.0354399752,42.7641594 C-0.171683225,40.8152215 0.545809849,38.6411439 1.74964193,36.594418 C2.64793868,35.066196 3.26358664,33.3651394 4.24084196,31.894908 C6.38302224,28.6724519 7.88323503,25.0918187 10.0620338,21.8886927 C11.0965054,20.3684303 11.7441946,18.5946012 12.7214499,17.029993 C14.5374969,14.1179569 15.8797926,10.9352982 17.9121175,8.14720277 C18.1959106,7.75832486 18.2897454,7.23527269 18.491147,6.78385593 C19.6766698,4.13448302 21.6575,2.25831766 24.2368132,0.968880368 C24.5022971,0.834706118 28.3117619,0.0251123355 28.6916785,0.0251123355 C40.3889898,0.0239752655 52.0863011,-0.0567566987 63.7824681,0.0774175517 C67.0838517,0.114940859 70.1220401,1.46236871 72.1967051,4.1390313 C73.4508875,5.75594473 74.3274421,7.67531875 75.2772335,9.50941253 C76.1972725,11.2877899 77.2111463,13.0036284 78.2696488,14.7024109 C79.0214717,15.9099791 79.6794598,17.1778121 80.3717776,18.4229036 C81.5813314,20.6003925 82.748545,22.802897 84.0038718,24.9553703 C85.5132392,27.5478897 87.0798229,30.1244902 88.472469,32.7624924 C89.5218169,34.7512277 91.1536273,36.5034524 91.5026471,38.8469535 C92.2350164,39.4393669 91.8745534,40.2546461 91.9020172,40.9698631 C91.9558006,42.3445806 92.1137177,43.7590956 91.8596771,45.0883303 C91.6239457,46.3209141 90.7050511,47.360196 90.1145783,48.4904435 C88.9862718,50.6463281 87.7263677,52.711247 86.5076594,54.809141 C85.5841875,56.3999019 84.8174883,58.0952731 83.840233,59.6667037 C82.4819168,61.8521521 81.2334559,64.1171954 80.0181806,66.3640456 C78.4287103,69.3010972 76.5543025,72.0823702 75.1593678,75.1342658 C74.3022669,77.00702 73.2735168,78.8570328 72.0010251,80.4671238 C71.1347695,81.5621221 69.7352575,82.2568718 68.5314254,83.0676027 C68.0347875,83.4019012 67.27381,83.3132098 66.9797179,84 L25.4166144,84 Z" id="Fill-28" fill="#CC9932"></path>
            <path d="M50.28,14.076 C49.2373281,14.9826712 48.4440027,16.0593271 47.9,17.306 C47.3559973,18.5526729 47.084,19.742661 47.084,20.876 C47.084,21.8280048 47.2199986,22.7573288 47.492,23.664 C47.7640014,24.5706712 48.1266644,25.2959973 48.58,25.84 C51.5266814,24.0266576 54.6773166,22.5306726 58.032,21.352 C61.3866834,20.1733274 64.8319823,19.584 68.368,19.584 C69.1840041,19.584 70.0339956,19.6519993 70.918,19.788 C71.8020044,19.9240007 72.606663,20.1619983 73.332,20.502 C74.057337,20.8420017 74.6579976,21.3293302 75.134,21.964 C75.6100024,22.5986698 75.848,23.3919952 75.848,24.344 C75.848,25.8400075 75.4173376,27.0979949 74.556,28.118 C73.6946624,29.1380051 72.5840068,29.9653302 71.224,30.6 C69.8639932,31.2346698 68.3453417,31.6879986 66.668,31.96 C64.9906583,32.2320014 63.3360082,32.368 61.704,32.368 C59.6186562,32.368 57.442678,32.0620031 55.176,31.45 C52.909322,30.8379969 50.9146753,29.6706753 49.192,27.948 C47.8773268,28.8546712 46.5286736,30.0673257 45.146,31.586 C43.7633264,33.1046743 42.4940058,34.7479912 41.338,36.516 C40.1819942,38.2840088 39.2300037,40.097324 38.482,41.956 C37.7339963,43.814676 37.36,45.5373254 37.36,47.124 C37.36,48.0760048 37.4393325,48.9713291 37.598,49.81 C37.7566675,50.6486709 38.0513312,51.3739969 38.482,51.986 C38.9126688,52.5980031 39.490663,53.0853315 40.216,53.448 C40.941337,53.8106685 41.8479946,53.992 42.936,53.992 C44.2053397,53.992 45.4973268,53.7426692 46.812,53.244 C48.1266732,52.7453308 49.350661,52.1446702 50.484,51.442 C51.617339,50.7393298 52.5919959,50.025337 53.408,49.3 C54.2240041,48.574663 54.7226658,47.9853356 54.904,47.532 C55.3573356,46.5799952 55.7766647,45.6960041 56.162,44.88 C56.5473353,44.0639959 56.9893308,43.3500031 57.488,42.738 C57.9866692,42.1259969 58.5873298,41.6386685 59.29,41.276 C59.9926702,40.9133315 60.8653281,40.732 61.908,40.732 C62.1800014,40.732 62.4406654,40.7999993 62.69,40.936 C62.9393346,41.0720007 63.064,41.343998 63.064,41.752 C63.064,42.2506692 62.6106712,43.0213281 61.704,44.064 C60.7973288,45.1066719 59.8680048,46.2399939 58.916,47.464 C57.5106596,49.9573458 55.9126756,52.4959871 54.122,55.08 C52.3313244,57.6640129 50.3253444,59.987323 48.104,62.05 C45.8826556,64.112677 43.4120136,65.8013268 40.692,67.116 C37.9719864,68.4306732 35.0026828,69.088 31.784,69.088 C30.242659,69.088 28.80334,68.8726688 27.466,68.442 C26.12866,68.0113312 24.9613383,67.3993373 23.964,66.606 C22.9666617,65.8126627 22.1846695,64.8606722 21.618,63.75 C21.0513305,62.6393278 20.768,61.4266732 20.768,60.112 C20.768,58.9333274 21.0513305,57.8906712 21.618,56.984 C22.1846695,56.0773288 23.1026603,55.624 24.372,55.624 C25.0066698,55.624 25.5619976,55.8619976 26.038,56.338 C26.5140024,56.8140024 26.752,57.3693302 26.752,58.004 C26.752,58.729337 26.5366688,59.3186644 26.106,59.772 C25.6753312,60.2253356 25.097337,60.4293336 24.372,60.384 C24.2359993,60.384 24.0433346,60.3726668 23.794,60.35 C23.5446654,60.3273332 23.3520007,60.2706671 23.216,60.18 C23.1253329,60.4973349 23.08,60.7919986 23.08,61.064 L23.08,61.744 C23.08,62.7413383 23.3293308,63.6479959 23.828,64.464 C24.3266692,65.2800041 24.9839959,65.9713305 25.8,66.538 C26.6160041,67.1046695 27.5566613,67.5353319 28.622,67.83 C29.6873387,68.1246681 30.8093274,68.272 31.988,68.272 C34.4360122,68.272 36.691323,67.6826726 38.754,66.504 C40.816677,65.3253274 42.7093247,63.8520088 44.432,62.084 C46.1546753,60.3159912 47.7299929,58.400677 49.158,56.338 C50.5860071,54.275323 51.866661,52.3600088 53,50.592 L52.864,50.456 C51.2773254,51.7706732 49.4866766,52.8699956 47.492,53.754 C45.4973234,54.6380044 43.4120109,55.08 41.236,55.08 C38.6973206,55.08 36.6913407,54.3320075 35.218,52.836 C33.7446593,51.3399925 33.008,49.3226794 33.008,46.784 C33.008,44.7893234 33.4953285,42.7946766 34.47,40.8 C35.4446715,38.8053234 36.6686593,36.9126756 38.142,35.122 C39.6153407,33.3313244 41.2359912,31.6766743 43.004,30.158 C44.7720088,28.6393257 46.426659,27.3813383 47.968,26.384 C46.834661,24.7519918 46.268,22.9613431 46.268,21.012 C46.268,19.5159925 46.6193298,18.1333397 47.322,16.864 C48.0246702,15.5946603 48.8746617,14.5293376 49.872,13.668 L50.28,14.076 Z M73.128,23.732 C73.128,22.9159959 72.9353353,22.2926688 72.55,21.862 C72.1646647,21.4313312 71.6660031,21.1026678 71.054,20.876 C70.4419969,20.6493322 69.7960034,20.5133336 69.116,20.468 C68.4359966,20.4226664 67.7786698,20.4 67.144,20.4 C65.6479925,20.4 64.1180078,20.603998 62.554,21.012 C60.9899922,21.420002 59.4486743,21.9413302 57.93,22.576 C56.4113257,23.2106698 54.9493404,23.9473291 53.544,24.786 C52.1386596,25.6246709 50.869339,26.4973288 49.736,27.404 C50.869339,28.7186732 52.4899895,29.738663 54.598,30.464 C56.7060105,31.189337 59.09732,31.552 61.772,31.552 C63.2226739,31.552 64.6279932,31.3820017 65.988,31.042 C67.3480068,30.7019983 68.5493281,30.2033366 69.592,29.546 C70.6346719,28.8886634 71.4846634,28.0726715 72.142,27.098 C72.7993366,26.1233285 73.128,25.0013397 73.128,23.732 Z" id="G-" fill="#FFFFFF" transform="translate(48.308000, 41.378000) rotate(-14.000000) translate(-48.308000, -41.378000) "></path>
        </g>
    </g>
</svg>